<svg xmlns="http://www.w3.org/2000/svg" viewBox="0 0 809.66 629.61"><title>flag_kr</title><path d="M253.34,311.41,361.15,149.49,253.34,311.41Zm-40.53-27,108-161.93-108,161.93Zm-40.33-27,108-161.92-108,161.92Z" transform="translate(-158.78 -86.59)" fill="#252422"/><path d="M266.83,320.4l-27-18L347.66,140.5l27,18Zm-40.54-26.95-27-18,108-161.92,27,18ZM186,266.5l-27-18L267,86.59l27,18Z" transform="translate(-158.78 -86.59)" fill="#252422"/><path d="M846.92,707.2l108-161.92-108,161.92Zm-40.53-27,108-161.93-108,161.93Zm-40.53-27,108-161.92-108,161.92Z" transform="translate(-158.78 -86.59)" fill="#252422"/><path d="M860.43,716.2l-27-18,108-161.93,27,18Zm-40.54-27-27-18,108-161.93,27,18Zm-40.53-27-27-18,108-161.91,27,18Z" transform="translate(-158.78 -86.59)" fill="#252422"/><polygon points="764.5 564.35 629.74 474.36 638.73 460.86 773.48 550.85 764.5 564.35" fill="#fefefe"/><path d="M401.68,293.58c59.58-89.38,180.37-113.49,269.74-53.91S784.91,420,725.33,509.41,545,622.89,455.59,563.31,342.1,383,401.68,293.58Z" transform="translate(-158.78 -86.59)" fill="#c62631"/><path d="M401.68,293.58a97.32,97.32,0,0,0,161.93,108,97.32,97.32,0,1,1,161.92,108C666,599,545.16,623.1,455.79,563.52,366.22,503.73,342.1,383,401.68,293.58Z" transform="translate(-158.78 -86.59)" fill="#303c70"/><path d="M361.15,653.29,253.34,491.37,361.15,653.29Zm-40.33,27-108-161.93,108,161.93Zm-40.53,27-108-161.92,108,161.92Z" transform="translate(-158.78 -86.59)" fill="#252422"/><path d="M266.8,716.2l-108-161.93,27-18,108,161.93Zm40.53-27-108-161.93,27-18,108,161.93Zm40.33-27L239.84,500.36l27-18L374.65,644.3Z" transform="translate(-158.78 -86.59)" fill="#252422"/><path d="M954.74,257.5l-108-161.92,108,161.92Zm-40.33,27-108-161.93,108,161.93Zm-40.53,27-108-161.92,108,161.92Z" transform="translate(-158.78 -86.59)" fill="#252422"/><path d="M860.39,320.41l-108-161.93,27-18,108,161.93Zm40.53-27-108-161.92,27-18,108,161.92Zm40.31-26.95-108-161.92,27-18,108,161.92Z" transform="translate(-158.78 -86.59)" fill="#252422"/><path d="M880.56,190l40.53-27-40.53,27ZM793,248.59l47.22-31.42L793,248.59ZM246.65,612.76l40.53-27-40.53,27Z" transform="translate(-158.78 -86.59)" fill="#252422"/><path d="M251.15,619.5l-9-13.49,40.53-27,9,13.5ZM797.51,255.33l-9-13.49,47.22-31.41,9,13.5Zm87.54-58.57-9-13.49,40.53-27,9,13.5Z" transform="translate(-158.78 -86.59)" fill="#fefefe"/></svg>