<svg xmlns="http://www.w3.org/2000/svg" xmlns:xlink="http://www.w3.org/1999/xlink" viewBox="0 0 1061.75 702.91"><defs><clipPath id="a" transform="translate(30.87 51.45)"><rect width="1000.01" height="600.01" fill="none"/></clipPath><clipPath id="b" transform="translate(30.87 51.45)"><polygon points="500 300 1000.01 300 1000.01 600.01 500 600.01 0 600.01 0 300 0 0 500 0 1000.01 0 500 300" fill="none"/></clipPath></defs><title>flag_en</title><g clip-path="url(#a)"><path d="M0,0V600H1000V0Z" transform="translate(30.87 51.45)" fill="#012169"/><path d="M0,0,1000,600m0-600L0,600" transform="translate(30.87 51.45)" stroke="#fff" stroke-miterlimit="80" stroke-width="120"/><g clip-path="url(#b)"><path d="M0,0,1000,600m0-600L0,600" transform="translate(30.87 51.45)" stroke="#c8102e" stroke-miterlimit="80" stroke-width="80"/></g><path d="M500,0V600M0,300H1000" transform="translate(30.87 51.45)" stroke="#fff" stroke-miterlimit="80" stroke-width="200"/><path d="M500,0V600M0,300H1000" transform="translate(30.87 51.45)" stroke="#c8102e" stroke-miterlimit="80" stroke-width="120"/></g></svg>