<svg xmlns="http://www.w3.org/2000/svg" viewBox="0 0 21.43 22.62"><title>ic_info_director</title><path d="M5.73,9.37H21.91c.79,0,.85,0,.84.83q0,5.82-.11,11.64a1.4,1.4,0,0,1-1.38,1.48c-1.91,0-3.83,0-5.74,0a1.08,1.08,0,0,1-.19,0v-3l.6,0c1.13,0,2.26,0,3.39,0,.14,0,.28-.14.43-.22-.14-.07-.28-.21-.42-.21H5.76c-.14,0-.28.14-.41.22.16.07.32.21.48.21,2.71,0,5.43,0,8.15,0h.9v3.08a3.58,3.58,0,0,1-.45.05H4a1.41,1.41,0,0,1-1.53-1.54c0-2.66,0-5.33,0-8a13.56,13.56,0,0,0-.38-2.25A1.63,1.63,0,0,1,2,11.2a8.46,8.46,0,0,0-.62-3.51c-.2-.64-.08-.85.56-1.05L20.13.84c.71-.23.88-.14,1.11.59s.38,1.21.57,1.82.1.81-.53,1L10.14,7.83,6,9.17a2.36,2.36,0,0,0-.28.12Zm14.2.58h-3a.32.32,0,0,0-.23.11c-.5.77-1,1.54-1.52,2.4,1.09,0,2,0,3,0a.56.56,0,0,0,.38-.25C19,11.5,19.42,10.79,19.93,10Zm-7-3.6L10.85,4.5a.32.32,0,0,0-.25,0l-2.88.92C8.46,6,9.13,6.62,9.8,7.19a.42.42,0,0,0,.35,0C11.05,7,11.94,6.67,12.92,6.35Zm-4,6.11h3a.36.36,0,0,0,.28-.11c.49-.76,1-1.52,1.5-2.39h-3a.43.43,0,0,0-.29.21C9.9,10.89,9.44,11.62,8.91,12.46Zm9.87-8L16.71,2.66a.42.42,0,0,0-.29-.05L13.6,3.5c.72.65,1.36,1.23,2,1.79a.53.53,0,0,0,.43,0C16.93,5.08,17.79,4.8,18.78,4.48ZM2.05,7.19c.06.09.08.16.12.17A5.2,5.2,0,0,1,4.26,9,.33.33,0,0,0,4.55,9c.8-.25,1.6-.52,2.49-.81C6.31,7.59,5.66,7,5,6.45a.44.44,0,0,0-.34-.09C3.79,6.62,2.93,6.9,2.05,7.19Zm10.47,9.74h0c2.24,0,4.48,0,6.72,0,.17,0,.34-.16.51-.24-.16-.07-.32-.21-.48-.21H5.82c-.16,0-.32.14-.48.21.17.08.34.24.51.24ZM2.8,12.46a19,19,0,0,1,2,0,1.35,1.35,0,0,0,1.59-.86,16.42,16.42,0,0,1,1-1.68H4.6a.28.28,0,0,0-.18.09c-.27.4-.52.8-.81,1.24H5.26l-.16-1a1.46,1.46,0,0,1,.62.58c.27.48.07.81-.47.83a9.56,9.56,0,0,1-1.31,0C3.38,11.64,3.07,11.92,2.8,12.46ZM21,2.9l.09-.06L20.6,1.28l-1.05.34Zm1.2,9.55V11.3l-.76,1.15ZM2.86,8.23c-.19.25-.36.39-.4.57s.21.23.33.35c.14-.14.33-.26.4-.43S3,8.46,2.86,8.23Zm.23,3c.18-.16.42-.31.4-.38s-.2-.36-.34-.38-.33.18-.38.32S2.94,11,3.09,11.23Z" transform="translate(-1.32 -0.73)" fill="#2b5ef1"/></svg>