<svg xmlns="http://www.w3.org/2000/svg" viewBox="0 0 22.8 19.95"><title>ic_info_cast</title><path d="M1.38,15c.84,0,.92,0,1.16.74s.45,1.68.69,2.51a1.56,1.56,0,0,0,.23.36c0-.14.14-.29.12-.41-.24-1-.5-2-.75-3a.94.94,0,0,1,1.09.41,7.36,7.36,0,0,1,1.4,4c-.89,0-1.75,0-2.62,0a2.41,2.41,0,0,0-.66.21,2.46,2.46,0,0,0,.63.17H20.9a3.23,3.23,0,0,0,.54,0,2.57,2.57,0,0,0,.47-.15,1.53,1.53,0,0,0-.5-.24c-.89,0-1.78,0-2.72,0a5,5,0,0,1,.45-2.31,13.84,13.84,0,0,1,.77-1.48,1,1,0,0,1,1.28-.59c-.16.51-.36,1-.49,1.56a13.09,13.09,0,0,0-.3,1.54c0,.11.1.23.15.35a1.08,1.08,0,0,0,.19-.3c.23-.86.4-1.73.67-2.57s.3-.76,1.24-.75c0,.15,0,.31,0,.47v5.82c0,.63-.08.71-.72.71H2c-.36,0-.61-.07-.61-.51,0-2.09,0-4.18,0-6.27C1.35,15.13,1.37,15.07,1.38,15Z" transform="translate(-0.6 -2.03)" fill="#2b5ef1"/><path d="M12,4.59H1.44C.73,4.59.6,4.46.6,3.77c0-.4,0-.79,0-1.19A.52.52,0,0,1,1.17,2H22.46c.88,0,.94.06.94,1v.93c0,.54-.13.67-.68.67H12Z" transform="translate(-0.6 -2.03)" fill="#2b5ef1"/><path d="M21.14,13.49a2.11,2.11,0,0,1-1.88-.38,11.47,11.47,0,0,1-4.74-6.4c-.18-.54-.3-1.1-.46-1.69h8.58c0,.16,0,.31,0,.47,0,2.45,0,4.9,0,7.36,0,.17-.08.47-.16.48-.34,0-.7.32-1-.08a15.83,15.83,0,0,1-2.69-4.52c-.22-.58-.39-1.19-.6-1.77a1.75,1.75,0,0,0-.28-.39c0,.15-.12.33-.08.47a16.08,16.08,0,0,0,2.46,5.29C20.54,12.71,20.83,13.08,21.14,13.49Z" transform="translate(-0.6 -2.03)" fill="#2b5ef1"/><path d="M9.89,5a12.39,12.39,0,0,1-1,3.21,11.11,11.11,0,0,1-4.34,5,2.07,2.07,0,0,1-1.71.29c.14-.19.27-.37.41-.54A15.57,15.57,0,0,0,6.1,7.23a2.66,2.66,0,0,0,0-.63,2.21,2.21,0,0,0-.36.54,16.34,16.34,0,0,1-2.85,5.7c-.57.72-.58.72-1.51.45V5Z" transform="translate(-0.6 -2.03)" fill="#2b5ef1"/><path d="M20.29,14l2.28-.26c.21.65.17.73-.43.82-.43.07-.85.09-1.28.12S20.22,14.64,20.29,14Z" transform="translate(-0.6 -2.03)" fill="#2b5ef1"/><path d="M3.68,14c.07.65,0,.72-.6.67L1.4,14.56v-.79Z" transform="translate(-0.6 -2.03)" fill="#2b5ef1"/></svg>