<svg xmlns="http://www.w3.org/2000/svg" viewBox="0 0 22.8 21.79"><title>ic_info_subs</title><path d="M20.55,2.53A1.43,1.43,0,0,1,22,4v11.4a1.43,1.43,0,0,1-1.43,1.43H6.89a2.84,2.84,0,0,0-2,.83L2,20.46V4A1.43,1.43,0,0,1,3.45,2.53ZM3.45,1.1A2.86,2.86,0,0,0,.6,4V22.18a.71.71,0,0,0,.71.72.75.75,0,0,0,.51-.21l4.06-4.07a1.42,1.42,0,0,1,1-.42H20.55a2.85,2.85,0,0,0,2.85-2.85V4A2.86,2.86,0,0,0,20.55,1.1Z" transform="translate(-0.6 -1.1)" fill="#2b5ef1"/><path d="M7.73,9.65A1.43,1.43,0,1,1,6.3,8.23,1.43,1.43,0,0,1,7.73,9.65m5.69,0A1.43,1.43,0,1,1,12,8.23a1.42,1.42,0,0,1,1.42,1.42m5.71,0A1.43,1.43,0,1,1,17.7,8.23a1.43,1.43,0,0,1,1.43,1.42" transform="translate(-0.6 -1.1)" fill="#2b5ef1"/></svg>