<svg xmlns="http://www.w3.org/2000/svg" viewBox="0 0 19.95 22.8"><title>ic_info_fact</title><path d="M6.3,2.74H4.88A2.85,2.85,0,0,0,2,5.59v15A2.86,2.86,0,0,0,4.88,23.4H19.13A2.86,2.86,0,0,0,22,20.55v-15a2.85,2.85,0,0,0-2.85-2.85H17.7V4.16h1.43a1.43,1.43,0,0,1,1.42,1.43v15A1.43,1.43,0,0,1,19.13,22H4.88a1.43,1.43,0,0,1-1.43-1.43v-15A1.43,1.43,0,0,1,4.88,4.16H6.3Z" transform="translate(-2.02 -0.6)" fill="#2b5ef1"/><path d="M14.14,2a.71.71,0,0,1,.71.72V4.16a.71.71,0,0,1-.71.72H9.86a.71.71,0,0,1-.71-.72V2.74A.71.71,0,0,1,9.86,2ZM9.86.6A2.13,2.13,0,0,0,7.73,2.74V4.16A2.13,2.13,0,0,0,9.86,6.3h4.28a2.13,2.13,0,0,0,2.13-2.14V2.74A2.13,2.13,0,0,0,14.14.6Z" transform="translate(-2.02 -0.6)" fill="#2b5ef1"/></svg>