<svg xmlns="http://www.w3.org/2000/svg" viewBox="0 0 22.8 22.8"><title>ic_info_camera</title><path d="M9.15,4.87A4.28,4.28,0,1,1,4.87.6,4.27,4.27,0,0,1,9.15,4.87" transform="translate(-0.6 -0.6)" fill="#2b5ef1"/><path d="M13.43,9.15A4.28,4.28,0,1,1,17.7,4.87a4.27,4.27,0,0,1-4.27,4.28" transform="translate(-0.6 -0.6)" fill="#2b5ef1"/><path d="M13.43,9.15h.71A2.84,2.84,0,0,1,17,11.63l4.44-2a1.42,1.42,0,0,1,2,1.3V21.59A1.43,1.43,0,0,1,22,23a1.4,1.4,0,0,1-.57-.13l-4.44-2a2.84,2.84,0,0,1-2.82,2.48H3.45A2.86,2.86,0,0,1,.6,20.55V12A2.86,2.86,0,0,1,3.45,9.15Z" transform="translate(-0.6 -0.6)" fill="#2b5ef1"/></svg>