<svg xmlns="http://www.w3.org/2000/svg" viewBox="0 0 21.81 22.78"><title>ic_info_year</title><path d="M4.89,2.9C5.1,1.05,5.33.6,6.08.63a1,1,0,0,1,1.07.81,8.91,8.91,0,0,1,.1,1.41h9.49c.09-.91-.19-2.2,1.22-2.17S19,1.92,19.07,2.88h1.57a2,2,0,0,1,2.27,2.27V21.22a2.05,2.05,0,0,1-2.18,2.17H3.3a2.05,2.05,0,0,1-2.2-2.16q0-8.13,0-16.26A2,2,0,0,1,3.16,2.9C3.72,2.88,4.29,2.9,4.89,2.9ZM1.77,8.16a.74.74,0,0,0-.07.18c0,4.3,0,8.61,0,12.91a1.45,1.45,0,0,0,1.65,1.53H20.52c1.26,0,1.76-.49,1.76-1.73V8.79c0-.2,0-.39,0-.63Zm-.09-.68H22.26c0-1,0-1.87,0-2.78a1.28,1.28,0,0,0-1.19-1.21c-.64-.05-1.3,0-2,0-.09.91.18,2.08-1.14,2.09s-1.11-1.17-1.2-2H7.23c0,.9.2,2-1.08,2.06S5,4.41,4.93,3.51c-.25,0-.44,0-.63,0a10.26,10.26,0,0,0-1.24,0A1.53,1.53,0,0,0,1.69,4.92C1.66,5.75,1.68,6.58,1.68,7.48ZM18.45,2.9a5.68,5.68,0,0,0,0-1.18.72.72,0,0,0-.51-.45c-.17,0-.45.27-.5.46a5.66,5.66,0,0,0,0,1.17ZM6.62,2.9a4.85,4.85,0,0,0,0-1.16.69.69,0,0,0-.51-.46c-.16,0-.44.27-.48.46a5.57,5.57,0,0,0,0,1.16Zm0,.59h-1a4.54,4.54,0,0,0,0,1c0,.2.32.48.48.48a.75.75,0,0,0,.52-.45A4.78,4.78,0,0,0,6.61,3.49Zm10.65,0A14.44,14.44,0,0,0,17.66,5s.53,0,.55,0a13.53,13.53,0,0,0,.32-1.42Z" transform="translate(-1.1 -0.63)" fill="#2b5ef1"/><path d="M12.79,20.52c0-.7,0-1.32,0-1.95,0-.13.23-.27.38-.38s.17,0,.26,0c1.88,0,1.92,0,1.71,1.92a.55.55,0,0,1-.36.39C14.16,20.54,13.52,20.52,12.79,20.52Z" transform="translate(-1.1 -0.63)" fill="#2b5ef1"/><path d="M8.75,10.72c.73,0,1.36,0,2,0,.14,0,.26.25.38.38s0,0,0,.06c.14,1.85-.11,2.09-2,1.85a.56.56,0,0,1-.37-.38C8.72,12,8.75,11.43,8.75,10.72Z" transform="translate(-1.1 -0.63)" fill="#2b5ef1"/><path d="M15.16,10.71c0,.73,0,1.34,0,1.94,0,.14-.25.27-.39.38s-.13,0-.19,0c-2.2-.07-1.72.47-1.77-1.88,0-.15.2-.42.33-.43C13.77,10.69,14.42,10.71,15.16,10.71Z" transform="translate(-1.1 -0.63)" fill="#2b5ef1"/><path d="M18,13c-1.3,0-1.16.24-1.16-1.19s-.18-1.13,1.15-1.13,1.23-.2,1.23,1.25C19.26,13.21,19.42,13,18,13Z" transform="translate(-1.1 -0.63)" fill="#2b5ef1"/><path d="M4.69,18.19c.73,0,1.36,0,2,0a.54.54,0,0,1,.37.38c0,.6,0,1.21,0,1.93-.74,0-1.43,0-2.11,0-.1,0-.25-.24-.25-.37C4.67,19.53,4.69,18.92,4.69,18.19Z" transform="translate(-1.1 -0.63)" fill="#2b5ef1"/><path d="M11.06,20.49H8.75c0-.69,0-1.35,0-2,0-.1.18-.2.29-.28s.12,0,.19,0C11.2,18.08,11.35,18.25,11.06,20.49Z" transform="translate(-1.1 -0.63)" fill="#2b5ef1"/><path d="M7,16.74H4.73V14.53H7Z" transform="translate(-1.1 -0.63)" fill="#2b5ef1"/><path d="M8.78,14.52h2.34c0,.66,0,1.29,0,1.91,0,.11-.19.31-.3.31-.66,0-1.33,0-2,0Z" transform="translate(-1.1 -0.63)" fill="#2b5ef1"/><path d="M15.17,14.53c0,.63,0,1.2,0,1.76,0,.33-.11.49-.45.48-.5,0-1,0-1.5,0a.57.57,0,0,1-.41-.4c-.05-.58,0-1.17,0-1.82Z" transform="translate(-1.1 -0.63)" fill="#2b5ef1"/><path d="M16.94,14.51h2.31c0,.65,0,1.28,0,1.9,0,.12-.21.24-.34.36s-.08,0-.12,0C16.82,16.92,16.62,16.68,16.94,14.51Z" transform="translate(-1.1 -0.63)" fill="#2b5ef1"/></svg>