<svg xmlns="http://www.w3.org/2000/svg" viewBox="0 0 22.8 22.83"><title>ic_info_country</title><path d="M23.4,11.89A11.4,11.4,0,1,1,12,.6,11.42,11.42,0,0,1,23.4,11.89Zm-20.22-6a11.14,11.14,0,0,0-1.91,5.75H5.7l.7-4.76Zm14.48,1,.64,4.75h4.43A10.25,10.25,0,0,0,21,6.22a.66.66,0,0,0-.57-.16C19.54,6.32,18.62,6.63,17.66,6.93ZM1.31,12.42A10,10,0,0,0,3,17.78a.6.6,0,0,0,.47.25c1-.27,2-.57,3-.85l-.74-4.76ZM17.6,17.19c1,.27,1.95.56,2.95.82a.51.51,0,0,0,.45-.15,10.35,10.35,0,0,0,1.72-5.43H18.31ZM17,7.07l-4.6.48v4.13h5.25Zm-5.34,4.62V7.53L7.05,7.11l-.66,4.58Zm0,.74H6.35c.26,1.47.49,2.88.76,4.27a.54.54,0,0,0,.42.31c1.38-.12,2.74-.28,4.13-.44Zm6,0H12.4v4.14c1.38.15,2.71.3,4,.41.16,0,.47-.16.49-.29C17.2,15.31,17.43,13.9,17.68,12.44Zm-.95-6c-.9-2.3-1.94-4.26-4.38-5.22,0,1.73,0,3.32,0,4.91,0,.2,0,.41,0,.74Zm-5,.43V1.38c-1.69.24-4,3-4.19,5.12Zm.71,10.34v5.44c1.79-.49,3.52-2.53,4.23-5.05Zm-.75,0-4.14.42c.32,1.87,2.39,4.9,4.14,5ZM9.59,1.63a10.43,10.43,0,0,0-6,3.78l3.13.92A11.3,11.3,0,0,1,9.59,1.63Zm4.87,0a11.37,11.37,0,0,1,2.9,4.69l3.13-.9A10.62,10.62,0,0,0,14.46,1.63Zm0,20.76a10.3,10.3,0,0,0,6-3.77l-3.19-.81A10.73,10.73,0,0,1,14.48,22.39ZM6.53,17.84l-2.91.8a10.48,10.48,0,0,0,5.73,3.75Z" transform="translate(-0.6 -0.6)" fill="#2b5ef1"/></svg>