<svg xmlns="http://www.w3.org/2000/svg" viewBox="0 0 22.8 20.09"><title>ic_info_language</title><path d="M19.13,4.09a2.14,2.14,0,1,1,4.27,0V19.77a2.14,2.14,0,0,1-4.27,0v-.31a24.38,24.38,0,0,0-9.85-3l.57,3.87A1.41,1.41,0,0,1,8.72,22a1.24,1.24,0,0,1-.27,0H7.67a1.41,1.41,0,0,1-1.3-.86l-2.64-5H3.44A2.88,2.88,0,0,1,.6,13.35V10.5A2.87,2.87,0,0,1,3.44,7.64c1.18,0,2.36-.06,3.54-.11A28.09,28.09,0,0,0,19.13,4.39Zm1.42,0V19.77a.72.72,0,0,0,1.43,0V4.09a.72.72,0,0,0-1.43,0M19.13,6a29.89,29.89,0,0,1-11.4,2.9v6l.76.06a26.52,26.52,0,0,1,10.64,2.84ZM6.3,14.87V9c-1,0-1.89.06-2.84.07A1.46,1.46,0,0,0,2,10.5v2.85a1.45,1.45,0,0,0,1.44,1.44c1,0,1.89,0,2.84.08m-.94,1.39,2.3,4.33v0h.78v0l-.63-4.22q-1.23-.07-2.46-.12Z" transform="translate(-0.6 -1.95)" fill="#2b5ef1"/></svg>