<svg xmlns="http://www.w3.org/2000/svg" viewBox="0 0 22.8 19"><title>ic_info_quote</title><path d="M1.55,2.5a1,1,0,0,0,0,1.9h20.9a.95.95,0,0,0,0-1.9Zm9.5,5.7a1,1,0,0,0,0,1.9h11.4a.95.95,0,1,0,0-1.9Zm0,5.7a.95.95,0,1,0,0,1.9h11.4a.95.95,0,0,0,0-1.9Zm-9.5,5.7a.95.95,0,1,0,0,1.9h20.9a.95.95,0,0,0,0-1.9ZM3.05,9.39c.21-.15.49-.32.84-.52L3.5,8.2c-.24.14-.52.32-.86.55a4.91,4.91,0,0,0-1,.81,4.73,4.73,0,0,0-.76,1.07A2.72,2.72,0,0,0,.6,11.94,3,3,0,0,0,1,13.6a1.51,1.51,0,0,0,1.37.62,1.19,1.19,0,0,0,1-.4,1.36,1.36,0,0,0,.36-.88,1.23,1.23,0,0,0-.41-1,1.57,1.57,0,0,0-1.08-.34H1.68a3.07,3.07,0,0,1,.23-.95,2.64,2.64,0,0,1,.48-.7,3.56,3.56,0,0,1,.66-.57Zm4.12,0c.21-.15.5-.32.84-.52l-.4-.67-.85.55a4.91,4.91,0,0,0-1,.81A4.43,4.43,0,0,0,5,10.63a2.72,2.72,0,0,0-.31,1.31,3,3,0,0,0,.41,1.66,1.51,1.51,0,0,0,1.37.62,1.19,1.19,0,0,0,1-.4,1.3,1.3,0,0,0,.35-.88,1.23,1.23,0,0,0-.4-1,1.57,1.57,0,0,0-1.08-.34H5.8A3.39,3.39,0,0,1,6,10.67,2.83,2.83,0,0,1,6.51,10a3.56,3.56,0,0,1,.66-.57Z" transform="translate(-0.6 -2.5)" fill="#2b5ef1"/></svg>