<svg xmlns="http://www.w3.org/2000/svg" viewBox="0 0 22.71 22.71"><title>ic_info_country</title><path d="M12,.65A11.35,11.35,0,1,1,.65,12,11.35,11.35,0,0,1,12,.65m0,1.42A9.88,9.88,0,0,0,5.85,4.2l-.41.91a1.2,1.2,0,0,0,2.1,1.16l.35-.52a1.15,1.15,0,0,1,1.47-.39,1.14,1.14,0,0,0,1,0l.38-.19a1.44,1.44,0,0,1,1.1-.07l1.39.48a1.37,1.37,0,0,0,.35.08c1.11.13,1.21.54,1,1.14a1.19,1.19,0,0,1-1.47.69h0A11.25,11.25,0,0,0,9.16,7a3.73,3.73,0,0,0-3.55,3.55c0,4.26,2.75,2.68,4.26,4.26s-1.42,5.67,2.84,5.67c2.48,0,4.26-5,4.26-6.38,0-1,2.13-1.42,1.42-3.55a2.68,2.68,0,0,0-.91-1.07.52.52,0,0,1-.08-.78.47.47,0,0,1,.6-.06l1.54,1a.37.37,0,0,0,.49,0,.44.44,0,0,1,.7.17,4.49,4.49,0,0,0,1.2,1.92A9.93,9.93,0,0,0,12,2.07" transform="translate(-0.65 -0.65)" fill="#2b5ef1" fill-rule="evenodd"/></svg>