<svg xmlns="http://www.w3.org/2000/svg" viewBox="0 0 22.8 22.63"><title>ic_info_composer</title><path d="M8.74,20.08c0,1.8-1.82,3.26-4.07,3.26S.6,21.88.6,20.08s1.82-3.25,4.07-3.25,4.07,1.45,4.07,3.25M23.4,16.83c0,1.79-1.82,3.25-4.07,3.25s-4.07-1.46-4.07-3.25,1.82-3.26,4.07-3.26S23.4,15,23.4,16.83" transform="translate(-0.6 -0.71)" fill="#2b5ef1"/><path d="M21.77,16.83V2.17H23.4V16.83Zm-13-13V20.08H7.11V3.8Z" transform="translate(-0.6 -0.71)" fill="#2b5ef1" fill-rule="evenodd"/><path d="M7.11,3.64A1.64,1.64,0,0,1,8.58,2l13-1.3a1.63,1.63,0,0,1,1.78,1.46.81.81,0,0,1,0,.16V3.8L7.11,5.43Z" transform="translate(-0.6 -0.71)" fill="#2b5ef1"/></svg>