<svg xmlns="http://www.w3.org/2000/svg" viewBox="0 0 22.79 22.21"><title>ic_info_camera</title><path d="M18.66,15.7H17.52v1.17a1.14,1.14,0,0,1-1.32,1.25H6.73c-.73,0-1.47,0-2.2,0a1.14,1.14,0,0,1-1.26-1.26c0-.71,0-1.42,0-2.16-.43,0-.8-.17-1.09.27a.59.59,0,0,1-.55.12.63.63,0,0,1-.27-.47q0-.9,0-1.8a.62.62,0,0,1,.29-.47.57.57,0,0,1,.53.15c.24.49.63.34,1.13.33V10.09a5,5,0,0,0,4.2-.42.89.89,0,0,1,.43-.08c1,0,2,0,3.05,0a1.32,1.32,0,0,1,.58.15,4.82,4.82,0,0,0,4.74.06.76.76,0,0,1,1.2.63c0,.4,0,.81,0,1.27h1.14Z" transform="translate(-0.6 -0.8)" fill="#2b5ef1"/><path d="M18.5,5.3a4.6,4.6,0,0,1-4.4,4.61,4.63,4.63,0,0,1-4.63-4.5A4.61,4.61,0,0,1,13.93.8,4.61,4.61,0,0,1,18.5,5.3ZM13.93,3.84a.93.93,0,0,0,1-.88.92.92,0,0,0-1.84-.17A1,1,0,0,0,13.93,3.84Zm-2.37.1a.93.93,0,0,0-.87.94.91.91,0,0,0,.94.86.88.88,0,0,0,.86-.92A1,1,0,0,0,11.56,3.94Zm5.77.92a1,1,0,0,0-.9-.9,1,1,0,0,0-.9,1,.85.85,0,0,0,.85.85A1,1,0,0,0,17.33,4.86ZM16.1,7.68a1,1,0,0,0-.91-1,1,1,0,0,0-.85.9,1,1,0,0,0,.85,1A1,1,0,0,0,16.1,7.68Zm-4.41-.11a1.05,1.05,0,0,0,1,.88,1,1,0,0,0,.83-1,.94.94,0,0,0-.9-.84A1,1,0,0,0,11.69,7.57Z" transform="translate(-0.6 -0.8)" fill="#2b5ef1"/><path d="M5.38,9.9A4.52,4.52,0,0,1,.61,5.59,4.25,4.25,0,0,1,4.23,1.12,4.43,4.43,0,0,1,9,3.75a1.75,1.75,0,0,1,.07.69c0,.63,0,1.27,0,1.9a2.28,2.28,0,0,1-.13,1A4.33,4.33,0,0,1,5.38,9.9ZM5.81,3a.89.89,0,0,0-.91-.88A.83.83,0,0,0,4,2.92a.88.88,0,0,0,.88,1A.93.93,0,0,0,5.81,3ZM2.59,5.77a.88.88,0,0,0,.88-.85A1,1,0,0,0,2.59,4a1,1,0,0,0-.91.9A.94.94,0,0,0,2.59,5.77Zm3,1.79a.93.93,0,0,0,.84.88,1,1,0,0,0,.91-.92,1,1,0,0,0-.94-.87A.88.88,0,0,0,5.62,7.56Zm2.6-2.69A.92.92,0,0,0,7.31,4a1,1,0,0,0-.88.94.91.91,0,0,0,.89.85A.92.92,0,0,0,8.22,4.87ZM4.72,7.7a1,1,0,0,0-.85-1A1,1,0,0,0,3,7.59a1,1,0,0,0,.94,1A.93.93,0,0,0,4.72,7.7Z" transform="translate(-0.6 -0.8)" fill="#2b5ef1"/><path d="M23.38,13.75c0,1.11,0,2.22,0,3.32a1,1,0,0,1-.33.75,1,1,0,0,1-.76-.14c-.91-.55-1.82-1.13-2.7-1.74a1,1,0,0,1-.37-.66c0-1,0-2.11,0-3.16a.84.84,0,0,1,.31-.58c.92-.62,1.86-1.2,2.8-1.79.65-.41,1.05-.2,1.06.56,0,1.14,0,2.29,0,3.44Z" transform="translate(-0.6 -0.8)" fill="#2b5ef1"/><path d="M10.46,19.63v2.7c0,.33,0,.69-.45.68s-.42-.39-.42-.71V19.52c-.3.29-.51.48-.71.69l-2.3,2.47c-.21.22-.43.43-.72.16s-.14-.53.1-.77c.82-.85,1.63-1.71,2.43-2.56-.3-.84-.25-.91.61-.92s1.46,0,2.2,0,.86.14.46.89l2.17,2.25c.13.14.32.25.38.41a2.53,2.53,0,0,1,.08.68c-.22,0-.53,0-.67-.1-.74-.72-1.44-1.48-2.15-2.23-.3-.3-.59-.61-.88-.92Z" transform="translate(-0.6 -0.8)" fill="#2b5ef1"/></svg>