<svg xmlns="http://www.w3.org/2000/svg" viewBox="0 0 18.53 22.8"><title>ic_info_writer</title><path d="M11.94,4.37l.05.34-.09-.12A9.78,9.78,0,0,1,13,3.48,15.51,15.51,0,0,1,19.23.7a6.71,6.71,0,0,1,1.1-.09c.86,0,1,.22.68,1-.45,1-1,2-1.48,3a3,3,0,0,1-2,1.65c-.9.25-1.76.61-2.63.94a3.5,3.5,0,0,0-.51.26l.05.18,3.42-.58c-.15.24-.22.39-.32.53-1.16,1.53-2.32,3.06-3.5,4.58a1.81,1.81,0,0,1-.79.54c-.83.28-1.68.5-2.52.75l-.58.19,0,.15h2.32c0,.11,0,.17,0,.2a8.13,8.13,0,0,1-6,3.19.63.63,0,0,0-.42.24,4.71,4.71,0,0,0-.38.71c.39.27.63.64.29,1.08a3,3,0,0,1-.74.5l-.13-.14a6.38,6.38,0,0,0-.38.9A6.3,6.3,0,0,1,3.14,23a1.31,1.31,0,0,1-.4.23c0-.16-.12-.35-.07-.48.4-1.07.83-2.14,1.25-3.2.1-.25.24-.45,0-.73-.11-.13,0-.53.1-.73s.4-.23.61-.33.39-.12.48-.26a2.28,2.28,0,0,0,.38-1.48A10.81,10.81,0,0,1,7.13,10a19.49,19.49,0,0,1,4.19-5.12C11.5,4.68,11.7,4.55,11.94,4.37Zm2.9,1-.1-.13a2.06,2.06,0,0,0-.42.21,35.11,35.11,0,0,0-8.41,11c-.09.17,0,.42,0,.63a1.7,1.7,0,0,0,.42-.38A39.28,39.28,0,0,1,14.42,5.81,6.2,6.2,0,0,0,14.84,5.35Z" transform="translate(-2.65 -0.61)" fill="#2b5ef1"/><path d="M7.51,23.41c-.59-.1-1.09-.18-1.59-.28-.11,0-.18-.18-.27-.28.12-.08.27-.25.35-.22,1.68.54,3.25-.2,4.87-.37a14.49,14.49,0,0,1,2.28,0c.13,0,.24.19.36.3-.15.06-.31.18-.44.16A8.45,8.45,0,0,0,9.75,23C9,23.16,8.21,23.27,7.51,23.41Z" transform="translate(-2.65 -0.61)" fill="#2b5ef1"/></svg>