<svg xmlns="http://www.w3.org/2000/svg" viewBox="0 0 22.8 18.74"><title>ic_info_subs</title><path d="M4.08,18.39l-.61,0a2.87,2.87,0,0,1-2.86-3c0-3.22,0-6.45,0-9.67a2.91,2.91,0,0,1,3-3q8.44,0,16.9,0A2.87,2.87,0,0,1,23.39,5.6q0,4.86,0,9.74a2.9,2.9,0,0,1-3.08,3c-3.58,0-7.15,0-10.73,0a2.26,2.26,0,0,0-1.15.36C7.2,19.52,6,20.37,4.8,21.17a2.41,2.41,0,0,1-.83.2,3.64,3.64,0,0,1-.09-.73C3.93,19.9,4,19.16,4.08,18.39Zm.48,2.17C5.8,19.71,6.91,19,8,18.19a2.49,2.49,0,0,1,1.59-.5c3.55,0,7.11,0,10.66,0a2.35,2.35,0,0,0,2.49-2.49q0-4.74,0-9.47A2.33,2.33,0,0,0,20.28,3.3H3.85A2.39,2.39,0,0,0,1.26,5.88c0,3.12,0,6.23,0,9.34a2.88,2.88,0,0,0,.05.59,2.3,2.3,0,0,0,2.63,1.88c.61,0,.85.14.76.77S4.62,19.73,4.56,20.56Z" transform="translate(-0.6 -2.63)" fill="#2b5ef1"/><path d="M16.66,9.43a1.16,1.16,0,0,1,1.15,1.13,1.11,1.11,0,0,1-1.09,1.1,1.08,1.08,0,0,1-1.13-1A1.12,1.12,0,0,1,16.66,9.43Z" transform="translate(-0.6 -2.63)" fill="#2b5ef1"/><path d="M7.31,9.46A1.08,1.08,0,0,1,8.4,10.54a1.1,1.1,0,0,1-1.13,1.12,1.12,1.12,0,0,1-1.09-1.15A1.09,1.09,0,0,1,7.31,9.46Z" transform="translate(-0.6 -2.63)" fill="#2b5ef1"/><path d="M12,11.66a1.14,1.14,0,0,1-1.09-1.12,1.15,1.15,0,0,1,1.19-1.09,1.12,1.12,0,0,1,1,1.16A1.09,1.09,0,0,1,12,11.66Z" transform="translate(-0.6 -2.63)" fill="#2b5ef1"/></svg>