<svg xmlns="http://www.w3.org/2000/svg" viewBox="0 0 22.8 18.64"><title>ic_info_composer</title><path d="M5,19c.52.62.52.62.08,1.18l-.94,1.18L2.27,19.76c-.49-.41-1-.83-1.46-1.24-.23-.19-.3-.35-.06-.59s.62-.68.93-1c.07-.09.18-.21.26-.2.59.05.59-.36.61-.75.06-.86.1-1.73.18-2.59A2,2,0,0,1,3,12.64c.34-.61.76-1.18,1-1.82s1.14-.89,1.79-1.15a6.68,6.68,0,0,1,1.68-.34,5.67,5.67,0,0,1,1,.11c1-1,2.17-2,3.32-3.12S14.29,4,15.54,2.87A1.35,1.35,0,0,1,16,2.7c-.07.17-.08.39-.19.51Q12.44,6.47,9,9.71a.69.69,0,0,0-.25.67,3.9,3.9,0,0,1-.11,1c.47.27.45.68.26,1.16-.39,1-.77,2-1.14,3A5,5,0,0,1,6.46,17.4C5.93,17.9,5.46,18.46,5,19Zm.08-8.55L5,10.34c-.18.12-.44.2-.51.36C3.91,11.94,2.8,13,3,14.49a4.28,4.28,0,0,1-.06,1.07c-.06.49-.16,1-.27,1.56l2,1.68c.67-.69,1.33-1.33,1.95-2a4.2,4.2,0,0,0,.75-1.13c.46-1.1.87-2.22,1.29-3.33a.34.34,0,0,0,0-.14c0-.13,0-.34-.07-.39a.46.46,0,0,0-.44,0,4,4,0,0,0-.66.7c-.24.32-.44.68-.66,1s-.45.25-.67,0A2.08,2.08,0,0,1,7,10.61a7.24,7.24,0,0,0,1.19-.76L8.1,9.67a1.22,1.22,0,0,0-.38-.07c-1.25.14-2.49.31-2.76,1.9A1.69,1.69,0,0,1,4.7,12a2.37,2.37,0,0,1-.22.33l-.18-.09ZM2,17.05,1,18.19l3.08,2.65,1-1.22Zm4.62-3.71c.14-.21.24-.39.37-.55a9.28,9.28,0,0,1,1-1.24,1.24,1.24,0,0,0,.42-1.2L6.58,12C6.1,12.39,6.1,12.78,6.63,13.34Z" transform="translate(-0.6 -2.7)" fill="#2b5ef1"/><path d="M22.69,10.9c.72.4.73.48.21,1.84.57.46.63.67.29,1.36a10,10,0,0,1-3.46,4.3,4.15,4.15,0,0,0-.71.78c.42.33.3.62,0,.95s-.64.77-1,1.2l-.73-.61c-.82-.7-1.63-1.42-2.46-2.1-.32-.27-.34-.46,0-.74s.56-.6.85-.89c.08-.09.22-.21.31-.2.49.09.5-.24.44-.53A4.65,4.65,0,0,1,16.92,13c.21-.4.27-.88.46-1.29.11-.21.36-.48.56-.49a.75.75,0,0,1,.59.43,5.69,5.69,0,0,1,.11,1.26c.31-.52.63-1.06.94-1.61.21-.37.39-.76.6-1.13.37-.62.87-.64,1.33,0,.29-.28.6-.6,1-.32S22.84,10.52,22.69,10.9Zm-1.94,3.26-.13-.11.14-.3c.52-.95,1-1.89,1.54-2.84.13-.25.51-.61.05-.84s-.55.25-.7.51c-.51.88-1,1.77-1.49,2.65a2.06,2.06,0,0,1-.33.33l-.14-.12c.13-.26.27-.5.4-.76.35-.72.71-1.43,1-2.16.05-.12-.06-.32-.1-.48-.16.05-.36.05-.47.15a2.51,2.51,0,0,0-.33.53c-.59,1-1.16,2-1.76,3a2.7,2.7,0,0,1-.41.42l-.16-.09c.08-.3.17-.6.23-.91a7.54,7.54,0,0,0,.17-1.24c0-.14-.21-.28-.33-.42a1.33,1.33,0,0,0-.31.37c-.22.55-.35,1.13-.61,1.66a4.27,4.27,0,0,0-.4,2.33,13,13,0,0,1,0,1.35l2.05,1.74c.52-.43,1-.83,1.44-1.2A9.84,9.84,0,0,0,23,13.66c.05-.13-.06-.33-.1-.5a1.43,1.43,0,0,0-.42.29c-.22.34-.4.71-.61,1.06a3.26,3.26,0,0,1-.34.4l-.14-.08c.06-.15.11-.3.18-.44.44-.84.89-1.67,1.3-2.52.07-.14-.05-.37-.08-.56-.16.1-.37.16-.46.31-.43.71-.82,1.45-1.23,2.17A2.44,2.44,0,0,1,20.75,14.16ZM18,20.85l1-1.19-3-2.54-1,1.12Z" transform="translate(-0.6 -2.7)" fill="#2b5ef1"/></svg>