<svg xmlns="http://www.w3.org/2000/svg" viewBox="0 0 22.83 14.46"><title>ic_info_language</title><path d="M12,19.4H6.35c-.78,0-.94-.19-1-1a3.06,3.06,0,0,1,2.11-3.22c.75-.29,1.5-.57,2.24-.87a.89.89,0,0,0,.34-1.53l0,0c-.49-.85-1-1.68-1.45-2.56-.13-.26.05-.66.08-1a4.86,4.86,0,0,0,0-.66A3.16,3.16,0,0,1,11.56,5a3.26,3.26,0,0,1,3.83,3.35,10.37,10.37,0,0,0,.13,1.12A1.83,1.83,0,0,1,15,11.1a2,2,0,0,0-.27.38c-.3.47-.56,1-.9,1.41a.91.91,0,0,0,.27,1.38c.5.23,1,.39,1.53.59a14.37,14.37,0,0,1,1.33.57,3.09,3.09,0,0,1,1.63,3.41c0,.44-.39.56-.78.56H12Z" transform="translate(-0.57 -4.94)" fill="#2b5ef1"/><path d="M.57,11.38a6.61,6.61,0,0,1,1-3.57,1.37,1.37,0,0,1,.32-.42,2.52,2.52,0,0,1,.57-.17c0,.22.12.49,0,.63a6.38,6.38,0,0,0-1.05,2.56,5.68,5.68,0,0,0,1,4.08.76.76,0,0,0,.08.11c.17.24.25.48,0,.67s-.45,0-.6-.2A6.19,6.19,0,0,1,.66,12.2C.62,11.88.59,11.56.57,11.38Z" transform="translate(-0.57 -4.94)" fill="#2b5ef1"/><path d="M23.4,11a6.58,6.58,0,0,1-1.17,4c-.17.24-.35.48-.66.28s-.17-.46,0-.71a5.68,5.68,0,0,0,0-6.6c-.11-.18-.19-.55-.09-.68.24-.31.5-.13.69.15A6.15,6.15,0,0,1,23.4,11Z" transform="translate(-0.57 -4.94)" fill="#2b5ef1"/><path d="M2.7,11.24a4.36,4.36,0,0,1,.76-2.33c.16-.22.34-.45.63-.26s.18.44,0,.7A3.33,3.33,0,0,0,4,13a2.39,2.39,0,0,0,.13.21c.17.22.21.5-.06.6a.65.65,0,0,1-.59-.21A4.29,4.29,0,0,1,2.7,11.24Z" transform="translate(-0.57 -4.94)" fill="#2b5ef1"/><path d="M21.26,11.22a4.3,4.3,0,0,1-.73,2.41c-.15.23-.33.42-.62.24s-.21-.42-.05-.67a3.34,3.34,0,0,0,0-3.84c-.15-.24-.31-.5,0-.71s.53,0,.69.3A4.06,4.06,0,0,1,21.26,11.22Z" transform="translate(-0.57 -4.94)" fill="#2b5ef1"/><path d="M19.18,11.28a8.83,8.83,0,0,1-.33,1,.41.41,0,0,1-.38.15.43.43,0,0,1-.21-.37,2.4,2.4,0,0,0,0-1.5c0-.11.11-.32.23-.41s.31.1.36.21A8.48,8.48,0,0,1,19.18,11.28Z" transform="translate(-0.57 -4.94)" fill="#2b5ef1"/><path d="M4.82,11.22a9,9,0,0,1,.35-.94c0-.1.26-.11.4-.17.06.15.2.34.16.44a1.88,1.88,0,0,0,0,1.36c0,.12-.12.31-.18.47-.15-.07-.38-.11-.44-.23A6.06,6.06,0,0,1,4.82,11.22Z" transform="translate(-0.57 -4.94)" fill="#2b5ef1"/></svg>