<svg xmlns="http://www.w3.org/2000/svg" viewBox="0 0 557.72 124.79"><title>ic_media_play</title><path d="M183.84,102.06a22.39,22.39,0,0,0-15.77-15.77c-13.4-3.65-66-3.77-69.32-3.77h-.2c-1.7,0-55.84.17-69.45,3.89a22.42,22.42,0,0,0-15.77,15.76c-4.18,24.58-5.8,62,.11,85.6a22.4,22.4,0,0,0,15.78,15.77c13.39,3.66,66,3.77,69.32,3.77h.32c3.27,0,55.93-.11,69.32-3.77A22.39,22.39,0,0,0,184,187.77C188.36,163.16,189.73,125.75,183.84,102.06Z" transform="translate(-9.58 -82.52)" fill="#d4a10e"/><path d="M80.87,171.66,127,144.91,80.87,118.17Z" transform="translate(-9.58 -82.52)" fill="#fff"/><path d="M224.64,164.74l-20-73h17.49s8.18,36.64,11,53.86h.47c3.17-18.28,11.2-53.86,11.2-53.86h17.5L242,164.62v35H224.76V164.74Zm228.63-43.91v78.92H439.55l-1.49-9.7h-.34c-3.77,7.27-9.38,11-16.82,11-13.45-.05-15-11.56-15.09-21.27V120.83h17.62v57.89c0,3.46.34,6,1.14,7.51,1.62,3.22,5.83,2.39,8.12.81a9.23,9.23,0,0,0,3.08-3.59V120.83Zm42,44.84a101.67,101.67,0,0,1-.69,13.51c-.46,3.24-1.25,5.55-2.4,6.93a5.47,5.47,0,0,1-4.46,2.08,7.7,7.7,0,0,1-7-4.16V139.2a10.66,10.66,0,0,1,3.08-5.31c2.51-2.86,6.82-2.9,8.81,0,1,1.38,1.6,3.81,2.06,7.16s.57,8.09.57,14.32v10.3Zm16.13-32.25c-1-5-2.75-8.55-5.15-10.86s-5.6-3.35-9.84-3.35a16,16,0,0,0-9,2.77,19,19,0,0,0-6.53,7.28h-.1V87.66H463.8v112h14.53l1.82-7.5h.35a16.07,16.07,0,0,0,6.05,6.35,18.5,18.5,0,0,0,9,2.32c6,0,10.3-2.78,13.15-8.33S513,178.26,513,166.58V154.11A107.72,107.72,0,0,0,511.38,133.42ZM410.85,106H393.34v93.71H376.18V106H358.69V91.7h52V106ZM363,120.83v78.92H349.31l-1.49-9.7h-.34c-3.78,7.27-9.38,11-16.82,11-13.45-.05-15-11.56-15.09-21.27V120.83h17.62v57.89c0,3.46.34,6,1.14,7.51,1.63,3.22,5.83,2.39,8.12.81a9.23,9.23,0,0,0,3.08-3.59V120.83ZM540.2,133a10.93,10.93,0,0,0-1.83,5.42c-.35,2.54-.46,11.56-.46,11.56v5.66h12.81V150c0,5.66-.12-8.9-.46-11.56s-.91-4.5-1.83-5.54a5.18,5.18,0,0,0-4.12-1.63A5.29,5.29,0,0,0,540.2,133Zm-2.29,33.27v4l.46,11.43c.34,2.54.91,4.39,1.83,5.55a5.28,5.28,0,0,0,4.35,1.73c2.62,0,4.45-1,5.37-3.12s1.49-5.54,1.6-10.28l15.21.93a17.87,17.87,0,0,1,.12,2.76c0,7.29-1.94,12.72-6,16.3S551.41,201,544.2,201c-8.69,0-14.76-2.78-18.18-8.22s-5.26-14-5.26-25.41v-14c.38-19.64,3.8-34,23.9-34.08,6.06,0,10.63,1.15,13.84,3.34s5.49,5.67,6.86,10.4,1.94,11.21,1.94,19.54v13.51H537.91v.12Zm-250.7,18.84c1-2.55,1.48-6.82,1.48-12.61v-24.6c0-5.67-.46-9.83-1.48-12.37s-2.75-3.93-5.15-3.93-4,1.28-5,3.93-1.48,6.7-1.48,12.37v24.6c0,5.79.46,10.06,1.37,12.61a5.13,5.13,0,0,0,5.15,3.81c2.4,0,4.11-1.27,5.15-3.81Zm-19.79,12.36c-3.54-2.43-6.06-6.12-7.55-11.21S257.7,174.45,257.7,166V154.57c0-8.43.79-15.37,2.52-20.45s4.34-8.9,8-11.21,8.35-3.58,14.19-3.58,10.4,1.15,13.83,3.58a20.86,20.86,0,0,1,7.67,11.21c1.6,5.08,2.39,11.9,2.39,20.34V165.9c0,8.43-.79,15.13-2.39,20.21s-4.12,8.78-7.67,11.21-8.34,3.59-14.29,3.59c-6.18.12-11-1.16-14.53-3.47Z" transform="translate(-9.58 -82.52)" fill="#d4a10e"/></svg>