<svg xmlns="http://www.w3.org/2000/svg" viewBox="0 0 23.47 17.42"><title>ic_nav_list</title><path d="M1.11,3.29a.84.84,0,0,0-.84.84V5.82a.84.84,0,0,0,.84.85H2.8a.84.84,0,0,0,.84-.85V4.13a.84.84,0,0,0-.84-.84Zm1.69.84H1.11V5.82H2.8Z" transform="translate(-0.27 -3.29)" fill="#2b5ef1" fill-rule="evenodd"/><path d="M6.84,5.33a.85.85,0,0,1,.85-.84h15.2a.85.85,0,0,1,0,1.69H7.69a.85.85,0,0,1-.85-.85m.85,5.91a.85.85,0,0,0-.85.85.84.84,0,0,0,.85.84h15.2a.83.83,0,0,0,.84-.84.84.84,0,0,0-.84-.85Zm0,6.76a.85.85,0,1,0,0,1.69h15.2a.85.85,0,0,0,0-1.69Z" transform="translate(-0.27 -3.29)" fill="#2b5ef1"/><path d="M.27,11.42a.84.84,0,0,1,.84-.84H2.8a.84.84,0,0,1,.84.84v1.69A.84.84,0,0,1,2.8,14H1.11a.84.84,0,0,1-.84-.85Zm.84,0H2.8v1.69H1.11Zm0,5.91a.84.84,0,0,0-.84.85v1.69a.84.84,0,0,0,.84.84H2.8a.84.84,0,0,0,.84-.84V18.18a.84.84,0,0,0-.84-.85Zm1.69.85H1.11v1.69H2.8Z" transform="translate(-0.27 -3.29)" fill="#2b5ef1" fill-rule="evenodd"/></svg>