<svg xmlns="http://www.w3.org/2000/svg" viewBox="0 0 22.8 21.38"><title>ic_nav_like_outline</title><path d="M4.68,21.73a.76.76,0,0,0,1.07.84L12,19.36l6.25,3.21a.76.76,0,0,0,1.07-.84L18.14,15l5-4.78a.8.8,0,0,0-.4-1.36l-7-1L12.66,1.7a.72.72,0,0,0-1-.35.67.67,0,0,0-.35.35L8.23,7.86l-7,1a.8.8,0,0,0-.41,1.36l5,4.78L4.68,21.73Zm7-3.95-5.25,2.7,1-5.64a.78.78,0,0,0-.23-.71L3,10.18l5.78-.82A.76.76,0,0,0,9.37,9L12,3.73,14.63,9a.76.76,0,0,0,.56.41l5.77.82-4.14,3.94a.81.81,0,0,0-.23.72l1,5.64-5.25-2.7a.76.76,0,0,0-.66,0Z" transform="translate(-0.6 -1.28)" fill="#2b5ef1"/></svg>