<?xml version="1.0" encoding="utf-8"?>
<!-- Generator: Adobe Illustrator 24.0.0, SVG Export Plug-In . SVG Version: 6.00 Build 0)  -->
<svg version="1.1" id="Layer_1" xmlns="http://www.w3.org/2000/svg" xmlns:xlink="http://www.w3.org/1999/xlink" x="0px" y="0px"
	 viewBox="0 0 575 289.8" style="enable-background:new 0 0 575 289.8;" xml:space="preserve">
<style type="text/css">
	.st0{fill:#D4A10E;}
</style>
<g>
	<path class="st0" d="M264.7,169.4c-2.7,2.4-5.5,4.7-8.1,7.2c-4.7,4.4-9.3,8.9-14,13.2c-5,4.6-11.2,3.9-14-1.4
		c-1.7-3.2-1.3-7.3,1.4-9.9c7.4-7,15-13.8,22.4-20.7c4.6-4.3,9-8.9,13.9-12.9c1.9-1.6,4.6-2.8,7-2.9c9.4-0.3,18.8-0.1,28.2-0.2
		c4.1-0.1,6.5,2.5,9.1,4.9c8.8,8.1,17.5,16.2,26.2,24.3c2.6,2.4,5.3,4.8,7.8,7.3c3.2,3.2,3.4,8.3,0.6,11.7
		c-2.8,3.4-7.8,3.8-11.5,0.8c-3.8-3.1-7.4-6.4-11-9.7c-3.7-3.4-7.3-6.9-10.9-10.3c-0.6-0.5-1.3-0.9-2.4-1.7
		c-0.1,1.8-0.3,3.1-0.3,4.3c0,34.7,0,69.5,0,104.2c0,7.3-6.8,11.4-12.9,7.7c-3.4-2.1-4.2-5.6-4.2-9.3c0-18.1-0.1-36.2,0-54.3
		c0-2.6-1.1-4.5-3.3-4.8c-1.6-0.2-3.7,0.7-5.1,1.8c-0.8,0.6-0.8,2.4-0.8,3.7c0,17.8,0,35.6,0,53.3c0,5.6-2,8.9-6,10.3
		c-5.6,2-11-1.6-11.2-7.6c-0.1-3.4,0-6.7,0-10.1c0-31.6,0-63.2,0-94.7c0-1.3,0-2.6,0-3.9C265.4,169.6,265.1,169.5,264.7,169.4z"/>
	<path class="st0" d="M362.8,168.6c-1.9,3.7-3.9,7.5-6,11.7c-1.5-6.1-5.4-9.8-9.6-13.2c-1.3-1-1.7-1.8-0.9-3.3
		c5.7-11.4,11.2-22.9,17-34.3c1.4-2.7,3.9-4.3,7.2-4.3c8.2,0.1,16.4,0.3,24.5-0.1c7.4-0.4,12.8,4.8,12.9,13c0.1,13,0,26,0,38.9
		c0,27.5,0,55,0,82.5c0,4-1.1,7.5-4.9,9.5c-5.7,3-12.2-1-12.2-7.6c0-16.6,0-33.1,0-49.7c0-2,0.1-4.1,0-6.1c-0.2-3.5-2.2-5.6-5.2-5.5
		c-2.8,0.1-4.6,2.2-4.6,5.7c0,18.2,0,36.4,0,54.6c0,3.5-1.2,6.5-4.2,8.3c-5.6,3.4-12.5-0.3-12.9-6.9c-0.1-1.4,0-2.9,0-4.3
		c0-28.4,0-56.8,0-85.2c0-1.2,0-2.4,0-3.6C363.5,168.7,363.2,168.6,362.8,168.6z"/>
	<path class="st0" d="M218.2,180.6c-2.2-4.4-4.1-8.1-6-11.7c-0.3,0-0.5,0.1-0.8,0.1c-0.1,1.1-0.2,2.2-0.2,3.4c0,29.2,0,58.5,0,87.7
		c0,5.4-2.8,9.3-7.2,10c-5.4,0.9-10-3.3-10-9.3c0-16.2,0-32.5,0-48.7c0-2.1,0-4.3,0-6.4c-0.1-3.3-2-5.4-4.9-5.4c-3,0-4.8,2-4.9,5.5
		c0,11.2,0,22.5,0,33.7c0,7.3,0,14.5,0,21.8c0,4.4-3.3,8.4-7.2,8.9c-4.5,0.6-8.4-2.3-9.4-7.1c-0.3-1.2-0.5-2.4-0.5-3.6
		c0-40.4,0-80.7,0-121.1c0-4.1,1-8.1,4.6-10.5c1.9-1.3,4.4-2.3,6.7-2.3c8.4-0.3,16.7,0,25.1-0.2c4.4-0.1,7.1,1.9,9,5.6
		c2.9,5.9,5.7,11.7,8.6,17.6c2.4,4.9,4.8,9.9,7.3,14.8c0.9,1.7,0.6,2.6-0.8,3.9C223.8,170.7,219.3,173.9,218.2,180.6z"/>
	<path class="st0" d="M309.6,109.1c-5.3-9.1-12.5-14.2-23.2-13.8c-9.7,0.4-16,5.6-20.7,14.4c0-14.4,0-28.3,0-42.2
		c-0.3-0.2-0.5-0.3-0.8-0.5c-6.8,6.3-13.6,12.5-20.7,19c-1.9-5.8-5.1-10.2-10.7-13c1.1-1,2-1.8,2.9-2.6c6.3-5.8,12.5-11.7,18.8-17.5
		c4-3.7,8-7.6,12.3-11.1c1.7-1.3,4.2-2.2,6.4-2.2c8.7-0.2,17.4,0.1,26-0.2c4.2-0.2,7.3,1.6,10.1,4.2c10.5,9.7,20.9,19.4,31.6,29.4
		c-5.4,2.8-9,6.9-10.6,13.1c-7.1-6.5-13.9-12.7-21.3-19.4C309.6,81.3,309.6,95.2,309.6,109.1z"/>
	<path class="st0" d="M403,84.8c-4.1-1.9-8-4.5-12.2-5.5c-8.8-2.1-17.7,0.6-23.6,8.5c-1,1.4-2.6,2.6-4.1,3.5c-3.1,2-6.3,3.8-9.4,5.7
		c-4.4,2.6-10,1.5-12.2-2.4c-2.5-4.3-1.1-9.5,3.4-12.1c11.2-6.6,22.4-13.3,33.9-19.6c6.1-3.3,12.9-2.5,19.4-0.6
		c3.1,0.9,4.5,3.7,4.7,6.6C403.2,74.3,403,79.8,403,84.8z"/>
	<path class="st0" d="M172,85.7c0-5.8-0.2-11.3,0.1-16.6c0.2-4.6,4.1-7.7,9.5-8.1c7.2-0.5,13.8,0.8,20.1,4.8
		c9,5.7,18.4,10.8,27.6,16.2c4.3,2.5,6.1,6.3,5.1,10.4c-1.2,4.7-6.3,7.5-10.9,5.4c-4.9-2.3-9.5-5.1-14-8.1c-2.5-1.7-4.1-4.5-6.4-6.4
		c-7.4-6.2-19.8-6.3-27.5-0.4C174.5,83.7,173.5,84.5,172,85.7z"/>
	<path class="st0" d="M198.9,37.9c0,7.1-6.5,14-13.7,13.6c-8-0.4-13.3-6.4-13.3-13.6c0-7.7,6-13.3,13.3-13.7
		C192.3,23.8,198.9,30.7,198.9,37.9z"/>
	<path class="st0" d="M403,38.1c0.1,7.1-5.7,13.6-13.5,13.3c-8-0.3-13.2-5.3-13.4-13.7c-0.2-7,6.7-13.8,13.5-13.4
		C397.5,24.7,403.2,30.5,403,38.1z"/>
	<path class="st0" d="M189.2,88.5c7.8,0,13.2,5.5,13.4,13.2c0.2,7.1-5.7,13.8-13.5,13.7c-7.1-0.1-13.3-5-13.5-13.7
		C175.5,94.3,181.7,88.5,189.2,88.5z"/>
	<path class="st0" d="M300.8,17.4c-0.5,8.1-8.4,13-14.8,12.2c-6.8-0.8-12.9-7.9-12.1-14.1c1.1-8.3,7.5-13.7,15.3-12.8
		C296.3,3.5,301.7,10.4,300.8,17.4z"/>
	<path class="st0" d="M385.8,88.5c8.4,0.1,13.4,6,13.4,13.3c-0.1,8.4-5.7,13.5-13.5,13.6c-7.9,0.1-13.6-6.7-13.4-13.8
		C372.6,94.1,378.2,88.4,385.8,88.5z"/>
	<path class="st0" d="M287.5,105.1c7.4,0,13.7,6.1,13.4,13.3c-0.3,8-5.8,13.4-13.9,13.7c-6.7,0.2-13.6-6.8-13.2-13.7
		C274.3,110,280.9,104.6,287.5,105.1z"/>
</g>
</svg>
