<svg xmlns="http://www.w3.org/2000/svg" viewBox="0 0 288.88 288.88"><title>ic_rate_meta</title><path d="M410.12,141.71a126.31,126.31,0,1,1,0-.16" transform="translate(-143.06 -0.95)"/><path d="M267.35,238.82,292,214.19l-47.43-47.42a23.8,23.8,0,0,1-5.32-7.33c-2.67-5.65-3.83-14.47,2.66-21,8-8,18.63-4.66,28.95,5.66l45.6,45.59,24.62-24.62-47.59-47.6A29.79,29.79,0,0,1,288,110c-3.16-6.48-3-14.64,2.83-20.46,8.16-8.16,18.8-5.16,30.62,6.66l44.26,44.26,24.63-24.63L342.39,67.93c-24.29-24.3-47.09-23.47-62.73-7.82a41.49,41.49,0,0,0-11.48,19.47,48.54,48.54,0,0,0-.67,20.29l-.33.34c-12-5-25.63-2-36.11,8.48-14,14-13.47,28.79-11.81,37.44l-.51.51-12.14-9.82-21.3,21.29c7.49,6.83,16.48,15.15,26.62,25.3Z" transform="translate(-143.06 -0.95)" fill="#f2f2f2"/><path d="M287.37,1A144.44,144.44,0,1,0,432,145.39v-.17A144.45,144.45,0,0,0,287.37,1Zm-.65,30.87A113.12,113.12,0,0,1,400,144.82V145A113.13,113.13,0,1,1,286.71,31.82Z" transform="translate(-143.06 -0.95)" fill="#ffbd3f"/></svg>