<svg xmlns="http://www.w3.org/2000/svg" viewBox="0 0 576 290.83"><title>ic_rate_imdb</title><path d="M575,24.91C573.44,12.15,564,2,551.91,0H23.32C10.11,2.17,0,14.16,0,28.61V260.86c0,16,12.37,29,27.64,29h520c14.06,0,25.67-11,27.41-25.26Z" transform="translate(0.5 0.5)" fill="#f6c700"/><path d="M575,24.91C573.44,12.15,564,2,551.91,0H23.32C10.11,2.17,0,14.16,0,28.61V260.86c0,16,12.37,29,27.64,29h520c14.06,0,25.67-11,27.41-25.26Z" transform="translate(0.5 0.5)" fill-opacity="0" stroke="#000" stroke-opacity="0"/><path d="M69.35,58.24H115V233.89H69.35Z" transform="translate(0.5 0.5)"/><path d="M69.35,58.24H115V233.89H69.35Z" transform="translate(0.5 0.5)" fill-opacity="0" stroke="#000" stroke-opacity="0"/><path d="M201.2,139.15Q195.32,99,194.67,94.53,191.81,73,189.2,57.09H130V232.74h40l.14-116,16.82,116h28.47l15.95-118.56.15,118.56h39.84V57.09H211.77Z" transform="translate(0.5 0.5)"/><path d="M201.2,139.15Q195.32,99,194.67,94.53,191.81,73,189.2,57.09H130V232.74h40l.14-116,16.82,116h28.47l15.95-118.56.15,118.56h39.84V57.09H211.77Z" transform="translate(0.5 0.5)" fill-opacity="0" stroke="#000" stroke-opacity="0"/><path d="M346.71,93.63q.75,3.36.76,15.26V177q0,17.53-2.27,21.49t-12.11,4V87.13c5,0,8.36.53,10.16,1.57A7.24,7.24,0,0,1,346.71,93.63ZM367.32,231A32.47,32.47,0,0,0,381,224.67a23.73,23.73,0,0,0,7.76-12.46c1.49-5.3,2.37-15.83,2.37-31.58V119c0-16.62-.65-27.76-1.66-33.42a31.61,31.61,0,0,0-7.6-15.44q-6.09-6.93-17.76-10c-7.79-2-20.49-3-42.58-3h-34V232.74h55.28Q361.89,232.14,367.32,231Z" transform="translate(0.5 0.5)"/><path d="M346.71,93.63q.75,3.36.76,15.26V177q0,17.53-2.27,21.49t-12.11,4V87.13c5,0,8.36.53,10.16,1.57A7.24,7.24,0,0,1,346.71,93.63ZM367.32,231A32.47,32.47,0,0,0,381,224.67a23.73,23.73,0,0,0,7.76-12.46c1.49-5.3,2.37-15.83,2.37-31.58V119c0-16.62-.65-27.76-1.66-33.42a31.61,31.61,0,0,0-7.6-15.44q-6.09-6.93-17.76-10c-7.79-2-20.49-3-42.58-3h-34V232.74h55.28Q361.89,232.14,367.32,231Z" transform="translate(0.5 0.5)" fill-opacity="0" stroke="#000" stroke-opacity="0"/><path d="M464.76,204.7c-.84,2.23-4.52,3.36-7.3,3.36s-4.53-1.08-5.45-3.25-1.37-7.09-1.37-14.81V143.58q0-12,1.21-15c.8-2,2.56-3,5.28-3s6.51,1.13,7.47,3.4,1.43,7.12,1.43,14.55v45Q465.6,202.47,464.76,204.7Zm-58.08,26.51h41.08q2.57-10.07,2.84-11.19a38.21,38.21,0,0,0,12.3,10.12c4.47,2.25,11.16,3.37,16.34,3.37a31,31,0,0,0,18.68-5.68q7.86-5.67,10-13.41t2.13-23.54V141.6q0-15.9-.71-20.77a23.67,23.67,0,0,0-4.2-10A22.62,22.62,0,0,0,495,103a40.13,40.13,0,0,0-15.72-2.82c-5.25,0-12,1-16.45,3.12a36.26,36.26,0,0,0-12.17,9.42V55.56h-44Z" transform="translate(0.5 0.5)"/><path d="M464.76,204.7c-.84,2.23-4.52,3.36-7.3,3.36s-4.53-1.08-5.45-3.25-1.37-7.09-1.37-14.81V143.58q0-12,1.21-15c.8-2,2.56-3,5.28-3s6.51,1.13,7.47,3.4,1.43,7.12,1.43,14.55v45Q465.6,202.47,464.76,204.7Zm-58.08,26.51h41.08q2.57-10.07,2.84-11.19a38.21,38.21,0,0,0,12.3,10.12c4.47,2.25,11.16,3.37,16.34,3.37a31,31,0,0,0,18.68-5.68q7.86-5.67,10-13.41t2.13-23.54V141.6q0-15.9-.71-20.77a23.67,23.67,0,0,0-4.2-10A22.62,22.62,0,0,0,495,103a40.13,40.13,0,0,0-15.72-2.82c-5.25,0-12,1-16.45,3.12a36.26,36.26,0,0,0-12.17,9.42V55.56h-44Z" transform="translate(0.5 0.5)" fill-opacity="0" stroke="#000" stroke-opacity="0"/></svg>