<svg xmlns="http://www.w3.org/2000/svg" viewBox="0 0 376.45 281.41"><title>ic_rate_rt_audience</title><path d="M356,6.9c75.93,3,74.07,263.84,2.22,262.17l-200.82-26.9c-68.81-19.45-69.92-187-1.44-205.48Z" transform="translate(-105.17 -6.9)" fill="#07a23b"/><path d="M325.71,22.85,155.31,47.06c-11.51,9.07-18.79,22.17-20.41,25.16L310.27,53.44c3.57-9.11,11.6-25.73,15.43-30.59Z" transform="translate(-105.17 -6.9)" fill="#fff"/><path d="M305.81,74.45l-176.22,15c-6.73,12.83-8.55,28.72-8.94,40.92l180-4.09c0-8.87,1.49-35.92,5.14-51.8Z" transform="translate(-105.17 -6.9)" fill="#fff"/><path d="M326.18,253.68,155.57,231c-11.59-9-19-22-20.64-25l175.56,17.19c3.64,9.08,11.82,25.63,15.69,30.45Z" transform="translate(-105.17 -6.9)" fill="#fff"/><path d="M305.83,202.27,129.49,188.9c-6.84-12.77-8.8-28.65-9.3-40.84l180.05,2.45c.1,8.87,1.8,35.91,5.59,51.76Z" transform="translate(-105.17 -6.9)" fill="#fff"/><path d="M371.51,27.4c-35.33,1.85-53.62,130.08-31.65,192l57.57-12.3C420.06,142.28,400.89,26.45,371.51,27.4Z" transform="translate(-105.17 -6.9)" fill="#03621e"/><path d="M370.05,217a16.53,16.53,0,1,1-16.54-16.52A16.53,16.53,0,0,1,370.05,217" transform="translate(-105.17 -6.9)" fill="#fdd600"/><path d="M407.47,207.41a15.09,15.09,0,1,1-15.11-15.09,15.09,15.09,0,0,1,15.11,15.09" transform="translate(-105.17 -6.9)" fill="#fdd600"/><path d="M427.51,205.63a13.31,13.31,0,1,1-13.31-13.31,13.3,13.3,0,0,1,13.31,13.31" transform="translate(-105.17 -6.9)" fill="#fdd600"/><path d="M437.52,217a10.09,10.09,0,1,1-10.1-10.08A10.08,10.08,0,0,1,437.52,217" transform="translate(-105.17 -6.9)" fill="#fdd600"/><path d="M456.35,228.28a13.55,13.55,0,1,1-13.56-13.55,13.54,13.54,0,0,1,13.56,13.55" transform="translate(-105.17 -6.9)" fill="#fdd600"/><path d="M469.24,251.29a15.09,15.09,0,1,1-15.1-15.1,15.09,15.09,0,0,1,15.1,15.1" transform="translate(-105.17 -6.9)" fill="#fdd600"/><path d="M481.38,266.54A10.57,10.57,0,1,1,470.81,256a10.56,10.56,0,0,1,10.57,10.56" transform="translate(-105.17 -6.9)" fill="#fdd600"/><path d="M481.62,272.74a11.28,11.28,0,1,1-11.29-11.27,11.28,11.28,0,0,1,11.29,11.27" transform="translate(-105.17 -6.9)" fill="#fdd600"/><path d="M465.41,275.24a13.07,13.07,0,1,1-13.08-13.07,13.06,13.06,0,0,1,13.08,13.07" transform="translate(-105.17 -6.9)" fill="#fdd600"/><path d="M444.91,274.4a10.8,10.8,0,1,1-10.81-10.8,10.79,10.79,0,0,1,10.81,10.8" transform="translate(-105.17 -6.9)" fill="#fdd600"/><path d="M441.11,267.38a13.79,13.79,0,1,1-13.8-13.78,13.78,13.78,0,0,1,13.8,13.78" transform="translate(-105.17 -6.9)" fill="#fdd600"/><path d="M418.69,268.57a13.78,13.78,0,1,1-13.79-13.78,13.78,13.78,0,0,1,13.79,13.78" transform="translate(-105.17 -6.9)" fill="#fdd600"/><path d="M400.81,266.9a9.73,9.73,0,1,1-9.74-9.73,9.73,9.73,0,0,1,9.74,9.73" transform="translate(-105.17 -6.9)" fill="#fdd600"/><path d="M387.94,265.47A10.92,10.92,0,1,1,377,254.55a10.92,10.92,0,0,1,10.93,10.92" transform="translate(-105.17 -6.9)" fill="#fdd600"/><path d="M358.24,220.54c5.82-4.65,14.65-7.78,25.87-9.73l31.23,1.67,41,36.72-5.49,26-72.95-6.91-12.76,3.93L335,223.92Z" transform="translate(-105.17 -6.9)" fill="#fdd600"/><path d="M331.37,197c8.76,32.47,19,60.88,34.09,76.29L338.52,269s-15-68.66-13.11-68.9,6-3.1,6-3.1Z" transform="translate(-105.17 -6.9)" fill="#09a339"/></svg>