<svg xmlns="http://www.w3.org/2000/svg" viewBox="0 0 277.48 287.17"><title>ic_rate_rt_critics</title><path d="M186.81,80.78c-60,58.93-29.14,130.17-12.23,153.47,75.21,89.51,198,54.06,238.71-12.61,10.16-17.5,48.12-114.07-51.15-166.43Z" transform="translate(-151.43 -0.69)" fill="#f93208"/><path d="M228.33,77.45l10.19-18.91,60.6-10.75,23.73,19.65Z" transform="translate(-151.43 -0.69)" fill="#f93208"/><path d="M228,12,247.08.69l14.42,33c8.09-13.49,29.42-34.81,53.21-10-10.09,2.7-16,8.23-16.52,18.09,32.31-8.9,66.87,6.85,71.56,19.39-23.37-9.2-59.09,22.14-89.12,5,0,32.1-26.92,35.5-42.46,36.43,4.43-10.65,11.93-21.32,3.14-32-16.25,17.43-29.6,22.76-70.76,10,10.4-3.58,31.66-24.3,52.16-24.38-14.46-5.26-26.22-4.45-38-3.14,6.22-8.45,25.92-32.43,61.07-18.09Z" transform="translate(-151.43 -0.69)" fill="#02902e"/></svg>