<svg xmlns="http://www.w3.org/2000/svg" viewBox="0 0 379.84 589.61"><defs><style>.a{fill:#d4a10e;}</style></defs><title>favicon</title><path class="a" d="M152.21,75.46c3.94-4.16,8.54-5.55,14.25-4.32S173.81,70,173.27,64c-.37-4,1-8.78,3.07-12.43,2.84-5.13,6.38-10.23,10.76-14,2.84-2.42,7.73-2.41,13.52-4-.22-2.56-.3-6.84-1-11-1.44-8.19,3.59-13.75,11-10.36,4.86,2.23,8.87,7.46,11.81,12.25,1.42,2.31-.49,6.7-2.24,10.14,2.34-8.23-2.63-13.09-7.42-17.82-4.06-4-9-2.78-9.06,2.61-.11,6.39.28,13.44,2.94,19,1.72,3.6,7.88,5.06,12.31,7.62-.81,2.5-9.87.48-4.95,7.7,10.78-2,16.72-9.6,20-16.21-2.89-6.88-7.17-12.17-6.69-17,.89-8.95,8-14.81,15.88-18.54,1.86-.88,5.91.88,7.81,2.66s2.14,5,3.13,7.61l-2.34.84a36.25,36.25,0,0,0-3.14-5.3c-2.83-3.38-7-2.64-9.19,1.09-1.47,2.54-4,4.52-5.24,7.13a26.69,26.69,0,0,0-2.6,9.4c-.1,1.35,2.15,2.87,3.33,4.31,1.18-1.08,2.79-1.93,3.46-3.26,2.84-5.54,6.52-9.45,13.35-8.85,7.74.68,13.88,4.2,17.76,10.87,1.06,1.81.16,4.77-.46,7.19-3.56-10.39-13.36-17-21.43-14-6.14,2.25-7.33,6.39-4,14.71a18.23,18.23,0,0,0-2.87,2.2c-2.54,2.8-4.95,5.72-7.41,8.59,3.34,2.78,6.46,5.92,10.12,8.18,1.64,1,4.59.93,6.54.21,3.86-1.42,7.43-3.62,11.12-5.51l-8.4-7.42c1.88-.73,4.33-2.45,5.15-1.86a35.31,35.31,0,0,1,7.75,7.78c.48.67-1.14,3.84-2.52,4.75-3.69,2.41-7.77,4.23-11.61,6.23,4.95,13.62,4.95,13.62-9.69,23.63l7.56,15.42c2-2.11,4-4,5.82-6.21,5.21-6.34,9.52-13.76,15.71-18.89,5.29-4.38,12.49-6.82,19.23-8.87,4.05-1.24,12.56,9,12.92,15.67.47,9.09,7.3,12.86,13.27,16.76s11.92-1.32,11.48-8.59a8.64,8.64,0,0,1,2.17-6.14c6-5.52,7.57-11.2,3.75-15.36-3.52-3.83-9.14-2.62-14.82,3.34A18,18,0,0,0,316.66,74l-2.84-2.38c1.8-2.41,3.2-5.36,5.5-7.1,2.5-1.89,6-2.34,8.76-4s7.54-5,7.17-6c-1.6-4.11-4.14-8.43-7.56-11-2.48-1.88-6.89-1.19-10.44-1.65-.31,3.24-1.28,6.58-.81,9.7,1.27,8.37,1.29,9-5.68,12.94.84-3.22,1.58-5.38,2-7.61,1-5.64-.88-10.55-6.39-12s-7.85,3-9.22,7.69c-2.47,8.47-3.61,8.53-10.84,3.21-1.7-1.24-5.67-.06-8.26.91-1.35.51-1.95,3-4,4.28.23-4,.47-8,.74-12.73a12.59,12.59,0,0,1,2-.67c12.42-2.26,12.59-2.73,7.59-14.17-.84-1.94-.43-4.5-.36-6.76.15-5.28,1.65-10.85.42-15.75-2.09-8.27-6.17-8.82-11.93-2.58-.64.69-.75,1.89-1.75,2.27C268.86,4.76,272,1.46,276.11.74c2.66-.46,7.71,1.61,8.49,3.74,2.17,5.87,2.82,12.35,3.77,18.63.58,3.88-.25,8.18,1.1,11.68,1.89,4.91,4.28,9.09-.52,13.67-.67.64.38,3.11.63,4.73l1.86.14c1-1.88,2-3.75,2.95-5.65,2.42-4.91,5.87-7.8,11.78-7.43a22.24,22.24,0,0,0,8.73-1.48c7.48-2.75,13.8-.64,19.3,4.4,5.13,4.7,3.78,10.38,3.78,16.89,0,10.11.45,19-6.21,27.6-2.14,2.78,1.92,10.06-4.19,12-4.24,1.35-9.23.17-13.64,1.18-4.23,1-8.14,3.3-13.68,5.67,10.44,8.29,12.9,18,9.48,29.43-.36,1.2.1,3.65.91,4.06,7.19,3.69,14.33,7.7,21.93,10.23,3.93,1.31,6.73-3.81,4.18-7.4-2.66-3.75-6.1-7-9.57-10.81,1.39-4,3.11-9,4.84-14l-2.43-2.18-12.32,9.43c.52-5.71,7-13.57,12.06-13.76,1.48-.06,3.44,1.89,4.45,3.41.68,1,.42,3,0,4.4-2.43,8.29,0,15,5.79,21.09,3.8,4,3.63,7.91-.92,11.47a24.87,24.87,0,0,0-3.28,3.82c8.08,6.31,12.1,4.83,14-4.57.31-1.59,1.93-2.87,2.68-4.43,1.74-3.57,3.92-7.06,4.82-10.85,2.09-8.74-1.42-12-10.35-10.54a40.43,40.43,0,0,1-5.37,0c5-5.76,10.48-4.83,14.3-2.86,2.59,1.34,4.72,6.54,4.5,9.84-.53,7.89-2.37,15.71-4.07,23.48-1.52,6.93-13.59,9.91-21.18,5.16-11.14-7-22.1-14.27-32-20.71-4.72,3.81-9.16,7.78-14.06,11.08-1.43,1-4.5.66-6.23-.24-5.9-3-11.53-6.61-17.52-10.13-.71,1.68-1.37,2.5-1.18,2.94,5.5,12.89,11.45,25.37,25.69,31.05,4.33,1.72,6.75,1.2,8.76-3.43,1.82-4.21,4-9.14,7.52-11.57,10.05-6.95,22.53,1,23.26,14.51.24,4.38-.74,8.84-1.21,13.74,2.68,0,5.09,0,7.51,0,5.4-.06,9.74,1.63,12.12,7,2.73,6.11,6.72,5.55,12.29,1.43-2.11-1.82-3.66-3.58-5.56-4.74-9.91-6.06-11.1-11.52-4.32-20.7,4.74-6.43,15.2-10,20.45-7s8.15,15.21,4.42,23.53a38.88,38.88,0,0,1-8.81,11.81c-5.09,4.84-6,10.77-1.38,16.14,2.13,2.46,4.45,4.75,6.7,7.1,12,12.56,11.94,30.17-2.29,39.78-12.49,8.43-19.71,20.08-27.11,32.31-42,69.44-84.38,138.67-126.21,208.22-15,24.88-28.81,50.43-43.05,75.75-4.06,7.21-9.94,10.76-18.15,11.19-40.84,2.14-77.59-8.93-111.28-32.4-17.53-12.23-30.54-27.82-41-46A16.89,16.89,0,0,1,.18,501.07C8,459.18,16.59,417.43,24,375.47c8-45.16,15-90.5,22.42-135.78,4.91-30.19,9.61-60.41,14.49-90.61,1-6.36,1.13-11.61-4.5-16.85-8.25-7.69-8.71-20-2.9-29.86,4-6.74,11.29-9.61,18.68-6.35,7.61,3.37,14,3.28,20.69-2.39,6.48-5.46,10.68,1.75,15.93,4.56.83-.78,1.76-1.54,2.55-2.41,5.18-5.68,8.37-5.64,13.61-.22,2,2.12,4.64,3.72,7.36,5.86,1-7.31.52-13.81,3-18.78,3.19-6.39,9.45-5.24,16-.69l1-6.71ZM125.1,179.34c-1,3.16-1.93,5.47-2.53,7.85q-16.65,65.92-33.25,131.88c-11.91,47.13-22,94.63-29.72,142.66-3.86,24-9.56,47.66-14,71.55-.66,3.48-.29,8.56,1.81,10.85,3.52,3.86,8.82,6.08,14.29,9.57,1.67-4.89,3.25-8.76,4.32-12.77,13.58-51.08,26.32-102.4,40.81-153.22,17.57-61.65,36.62-122.88,54.92-184.33.53-1.8.53-5.13-.5-5.84C150.15,190,138.61,183.24,125.1,179.34Zm126.08,55.77c-7.31-2.78-14.25-5.42-21.2-8-18.42-7-18.36-6.94-24.94,12.17Q151.19,395.89,97.28,552.49c-6.15,17.86-4.59,15.08,11,20.81,4.61,1.7,7.16.11,9-4.65,7.65-19.59,16.31-38.8,23.49-58.56,33-90.88,66.76-181.46,108.4-268.82A49.23,49.23,0,0,0,251.18,235.11Zm77.6,16.11c-10.42-1.37-19.49-2.63-28.57-3.73-5-.6-8,1.45-10.54,6.22-48.47,92.81-95.11,186.52-136.58,282.75-6,14-11.81,28-17.68,42,10,5.32,13,3.84,17.14-5.42,15.1-33.49,28.54-67.95,46.35-99.94,36.27-65.19,75-129,112.7-193.38C317,270.48,322.64,261.39,328.78,251.22ZM17.5,517.8c1.07-6.38,1.59-11.07,2.66-15.63,26.44-111.8,45.39-225,63.75-338.39,2.51-15.47.85-18.82-14.36-27.35-.87,4.13-1.87,7.88-2.43,11.7-5.78,39.19-10.49,78.57-17.43,117.54C36.29,340.94,21.81,416,7.33,491.09,5.23,502,9.26,509.28,17.5,517.8ZM370.42,231.56c-14.1,5.63-27.17,6.16-39.74,2.49-14.34-4.19-30.26-2.63-43.18-12a13.22,13.22,0,0,0-4.22-1.48c-39.21-10.76-77.37-24.11-114.34-41.52-30-14.13-59.78-27.95-82.83-52.56-5.19-5.54-7.85-13.47-11.78-20.23-.89-1.55-1.93-3.7-3.34-4.13-4.51-1.37-13.25,4.88-14.42,9.85-1.34,5.68,2.42,11,8.7,12.76A15.19,15.19,0,0,1,71,127.51C84.5,139,96.79,152.27,111.45,161.9c56.78,37.26,118.17,64.29,184.32,80A211,211,0,0,0,373.39,246C372.48,241.55,371.55,237.07,370.42,231.56ZM265.88,118.21c-9.32-1.24-17.27-3.84-19.94-13.66-.13-.48-1.22-1-1.87-1-7.32,0-14.63.07-21.95,0-2.27,0-5.55.26-6.57-1a9.76,9.76,0,0,1-1.38-7.45c1.77-7,8-8.51,15.78-3.86-2.75.49-5.35.39-7.3,1.48s-3,3.29-4.44,5c2.07.57,4.11,1.5,6.21,1.65,4.39.31,8.8.26,13.2.25,1.8,0,4.84.21,5.16-.58a7.86,7.86,0,0,0-.1-6.1c-2.15-3.82-5-7.22-8.27-11.69,4.08-1.92,7.39-3.46,10.68-5,7.68-3.71,8.42-8.23,1.49-13.34a89.19,89.19,0,0,0-16.26-9.15c-5.56-2.52-12.52,1.48-17.3,8.65-3.33,5-3,9.93,1.08,13.57,2.12,1.9,6.21,1.87,9.44,2,1,0,2.15-2.2,3.24-3.4L220.49,70l-.38-2.1c3-.27,7.15-1.93,8.73-.56,5.39,4.66,3.32,11.68-3.51,14.06-7.45,2.59-15.1-1.22-18-9.08-.93-2.5-1.58-5.11-2.48-8.07-4.37,1-8.28,1.66-12,2.86-1.58.51-4,2.16-3.92,3.25,0,1.57,1.64,3.48,3.09,4.54s3.65,1.41,6.4,2.36c-6.44,2.26-6.54,6.64-4.06,11,4.77,8.36,10,16.48,15.24,24.55.59.9,2.68,1.26,4,1.15,8.39-.67,15.23,1.82,18.69,8.4,6.2-.63,11.6-2.48,16.25-1.32,5,1.26,9.29,5.34,14.54,8.6ZM81.7,106l-2.6,1.46c1.8,3.33,3.13,7.07,5.49,9.94,17.75,21.53,41.27,35.38,65.4,48,14.92,7.81,30.75,13.86,45.34,20.33,3.85-4.46,6.57-7.93,9.64-11.06,3.25-3.32,7.47-5.84,10.15-9.53,6.51-9,2.44-21.49-8.08-24.34-7.27-2-14.95-2.39-23.59-3.67l4.1,20.34,2.19.08a46.4,46.4,0,0,1,1.73-7.11c.95-2.31,2.11-5.74,3.89-6.29,6.55-2,11.48,1.37,15.26,6.61,3.53,4.89,2.19,8.77-2.43,12.15a21.83,21.83,0,0,0-4,4.44c-9.49,12.18-12,11.9-19-2.23-.19-.38-.77-.56-1.18-.82-16.29,3.54-23.27.44-29-12.88-11.9.14-15.71-2.63-15.61-11.68,0-2.73.91-5.43,1.17-8.17.53-5.31-2.08-9.76-7-9.64s-9.63,3.08-14.72,4.9c.45,1.59.89,3.11,1.43,5l-5.85-1.19-1.17,2.18,14.79,9.6c-4,.42-9.53.76-11.59-1.74-3.8-4.64-13.18-7.59-7.39-17.06,2-3.31-3.57-9.42-7-7.57-9.63,5.24-14.23.56-17.8-7.64C83.83,107.38,82.58,106.75,81.7,106ZM336.63,213.31c7.31-7.05,9.82-15.38,5.25-18.32a14.17,14.17,0,0,0-10.95-1.21c-3.44,1.21-6,5-8.93,7.69l-2-.45c1.08-5.07,1.49-10.42,3.39-15.17,3.08-7.72,2.54-16-2.5-21-4.16-4.12-8.76-4.44-13.56-1.34s-6.25,7.51-3.58,12.93c.89,1.82,1.56,3.75,3,7.34-4.19-1.32-6.43-2.16-8.72-2.74-9.23-2.33-18.67,6.11-16.81,15.38a9,9,0,0,0,4.76,5.72c1.56.63,4.26-1.13,6.23-2.22,1.16-.64,1.88-2.06,2.8-3.13l.51,1.52L308.73,197l-3.49-8.46,1.35-1.68c2.26,1.34,6.36,2.6,6.42,4,.15,3.79-1.45,7.65-2.52,12.17,4.17,1.15,9.45,4.34,13.9,3.44C331.24,205.06,335.37,205.55,336.63,213.31ZM296.92,79a37.8,37.8,0,0,0-5,2.63A43.53,43.53,0,0,0,287.24,86c1.2-4.46,3.89-7.48,5.64-11,.67-1.35-.83-3.79-1.34-5.74-1.72.46-4.66.53-5,1.44-1.44,4.59-4.55,4.23-8.24,4.17-1.89,0-4.67,1.35-5.44,2.9s.48,4.06,1.37,5.91c1.36,2.84,3.18,5.46,4.81,8.18l-2,1.21c-1.05-1.5-2-3.1-3.17-4.49-3.05-3.59-6.69-5.58-10.51-1.43-3.15,3.42-5.62,7.47-8.44,11.22-4.94,6.57-3.52,11.51,4.06,14.65,6.61,2.74,12-.24,17.65-3.12,7.65-3.91,13.91-10.68,24.31-8.52,5.84,1.21,7.42-3,4.31-8C302.61,89,300.09,84.44,296.92,79ZM285.65,176.3c-4.69-1.79-9.27-5-13.66-4.79s-8.82,3.9-13.22,6.06c2.4-4.5,6.68-7.31,8.42-11.26,2.7-6.16-1.76-8.87-5.27-9.68-4.75,3.35-8.08,5.8-11.52,8.09-4.21,2.8-6.15,6.94-2.6,10.62a24.2,24.2,0,0,0,11.94,6.42c9.9,2,14.78,13,8.72,21.22-1.4,1.89-2.92,3.69-5.15,6.5,9.6,3,18.07,5.72,26.65,8.06,1.37.37,3.84-.69,4.76-1.89,2.52-3.26,4.48-7,7.61-12-4.55.83-7.61,1.27-10.61,2-11.42,2.64-17.75-3.94-14-15.19C279.31,185.84,282.5,181.82,285.65,176.3Zm-58.23-51.67c-2.21-6.14-6.89-7.62-12-6.52-6.69,1.42-9.64-.81-11.72-7.33-3.19-10-10.22-14.81-18.63-14.39-7.43.36-10.68,5.93-7.07,12.44,1.68,3,3.88,5.76,5.86,8.64-2.54,4.85-7.21,9.59-.51,14.42,9,6.46,17,3.68,27-9.43C215.36,125.51,220.41,130.33,227.42,124.63Zm-36-35c-2.58-4.92-4.88-10.25-8.06-15-2.25-3.37-5.74-4.16-8.39.1-2.29,3.66-4.56,2.82-8.07,1.43-2.46-1-7.19-.31-8.77,1.5-4.82,5.53-2.47,21.4,2.45,27.06,5.88,6.76,12,13.79,7.77,24-.14.34.26.9.58,1.88l6.52,1.25c.36-6.26,2.4-12.42.7-17.24-5.63-15.92-4.18-19.49,12.45-23.24C189.07,91.33,189.45,90.92,191.45,89.64ZM292.9,136c1.39-.48,3.25-1.16,5.13-1.77,10-3.25,12-8.67,6.14-17.24-5.45-8-13.29-10.23-21.37-6-12.33,6.41-18.18,16.43-14.81,25.36,1.76,4.66,8,5.74,11.57,1.93,2.38-2.53,4.65-5.17,7-7.77a18.75,18.75,0,0,1-1.07,7.74c-.78,2.53-1.63,5-3.21,9.94,4.69-.84,8.87-.42,10.78-2.32C294.49,144.38,293.08,140,292.9,136Zm-37.74,12.4-2.09-.65c9.89-8,9.73-14.16-1.4-20.32-3.41-1.88-9-2.8-12.15-1.2-2.71,1.38-3.79,6.83-4.69,10.69-.73,3.16-.15,6.63-.15,10.25-6.61-.31-12,0-13.2,6.91-.92,5.13,3.59,10.78,9.76,12.51,12.53,3.51,12.27-7,14.75-15.17l5.81,8.67ZM146.86,100.5c7,2.33,6.74-1.27,5.79-4.75-1.55-5.7-2.83-14.3-9.86-12.89-10.59,2.12-5.52,11.78-4.95,18.64-1.46.78-2.8,1.12-3.6,2-2.51,2.73-4.81,5.66-7.19,8.51,3.09,1.89,6.18,3.79,9.28,5.66,2.75,1.67,5.36,3.75,8.32,4.86a84.24,84.24,0,0,0,16.82,4.84c1.2.18,4.58-4.61,4.46-7-.39-7.85-6.72-12.38-14.85-11.4ZM159.05,146c.71,2.38,1.41,4.46,1.94,6.59,1.41,5.67,10,11,15.83,9.71,4.37-.92,7.19-7.32,6.06-13.73-1-5.53-8.23-12.87-13.56-13.58-6.83-.91-13.65-1.88-20.51-2.44-1.56-.13-4.61,1.2-4.66,2-.22,3.58-.44,7.63,1.06,10.65.8,1.61,5.07,1.78,7.82,2C154.88,147.41,156.81,146.53,159.05,146Zm65.33,52c3.18-5.14,5.54-8.75,7.65-12.5.52-.93.77-2.71.24-3.41a101.72,101.72,0,0,0-10.34-12.29c-.9-.86-4.5.17-6.21,1.32-3.36,2.25-6.09,5.44-9.4,7.78-4.92,3.49-5.87,8.05-1.15,10.65C211.51,193.11,218.45,195.5,224.38,198.05Zm-43-146.28a14.06,14.06,0,0,0-2,3c-.87,2.61-1.47,5.31-2.18,8,3,.55,6,1.75,9,1.51,5.16-.43,10.24-1.75,15.36-2.66,6.3-1.12,8.65-4.83,6.14-10.64-1.15-2.67-2.86-5.64-5.18-7.13-3.45-2.23-8.75-5.57-11.33-4.34-5.42,2.6-3,7.86-.29,12.07.2.31-.1.93-.3,2.33Zm-68.78,57.35c-4.06-4.44-6.79-7.93-10-10.82-3.46-3.09-7.27-2.81-10.63.55-3.7,3.7-3.91,7.88-1.38,12.27,2.41,4.17,5.71,3,9,1.29,4.76-2.47,8.06-1,11.56,3,2.75,3.1,6.89,5,10.41,7.35l2.5-2.25c-1.45-4.5-2.89-9-4.52-14.08.36-.42,1.55-1.23,1.86-2.29.57-1.89,1.18-4.11.65-5.84-.33-1.08-3.49-2.48-4.07-2a12.33,12.33,0,0,0-3.37,5.08C113.76,103.38,113.46,105.68,112.62,109.12Zm210.26,105c-8.07-7.6-17.94-7.67-21.58.19-.87,1.88.22,6.81,1.39,7.17a136,136,0,0,0,23.73,5.45c2,.24,6.28-3.62,6.54-5.94.43-3.77-1.58-7.83-2.8-12.73ZM231.75,194.5c2.3,2.79,3.39,5.17,5.21,6.11a73.7,73.7,0,0,0,13.12,5.19c6.87,2,12.07-1.07,16-6.66s-1.14-8.68-4-11.87c-.52-.57-4.69,2-7,3.38-.7.42-.83,1.79-1.48,3.32C245.66,185.28,240.14,193.25,231.75,194.5Zm133.45-.06c7.71-7.4,10.12-15.46,6-22.18-1.49-2.42-6-4.34-9-4.18-6.88.35-11,5.71-11.36,11.91C350.37,189.31,360.86,188.58,365.2,194.44Zm-168-36.79c-2.78,3.23-6,5.34-6.24,7.74s2.59,5,4.63,8.54c3.94-4.91,7.3-8.08,9.34-12,1.46-2.79,2.59-7.27,1.33-9.65-2-3.74-6.2-5.7-11.11-2.21C196,152.91,196.71,155.72,197.24,157.65Zm168.45,67c-5.32-1-8.92-1.89-12.56-2.42-2.45-.35-5.08.22-7.41-.42-6.41-1.78-9.05,1.34-10.51,6.9C347.25,233.29,356.15,232.5,365.69,224.68ZM209.58,130.83c.2,2.15-.55,5.73.88,7.28,5.19,5.64,12.84,7,17.06,3.44,3.69-3.16,3.52-7.13,1-10.72Zm130.56,86.46c4.54.77,7.91,2.42,10.22,1.47a15.56,15.56,0,0,0,7.26-7.1c.86-1.74-1-4.88-1.7-7.39-3.05,1.11-6.61,1.6-9,3.52S342.92,213.23,340.14,217.29ZM233.22,171.92c4.41,14.07,9.39,16.83,19.32,11.34-3.36-3-7.72-5.43-9.91-9.16C239.92,169.47,237.34,169.87,233.22,171.92Z" transform="translate(0.03 -0.68)"/><path class="a" d="M152.39,75.24c-.85-1.83-1.65-3.69-2.56-5.49-1.72-3.37-2.75-7.72-5.48-9.78s-7-1.61-10.68-2.28c-.3,2.9-.61,5.79-.93,8.92-10.22,1.67-10.38,1.87-8.21,11.25-1.82-1.79-4.64-3.32-5.17-5.43s.57-5.32,2-7.36c2.34-3.45,5-7,8.4-9.28a13.81,13.81,0,0,1,9.78-1.91c6.43,1.55,12.11,5,13.05,12.59.37,2.93-.18,6-.33,9Z" transform="translate(0.03 -0.68)"/><path class="a" d="M99.44,88.07c-1.6-3.1-3.79-5.4-3.59-7.47.21-2.26,2.39-5.83,4.16-6.12,3.53-.59,7.36.66,11.08,1.16-.12.75-.24,1.5-.35,2.26-3.13,0-6.79-1-9.18.35C100,79.11,100.34,83.36,99.44,88.07Z" transform="translate(0.03 -0.68)"/></svg>